<svg version="1.1" xmlns="http://www.w3.org/2000/svg" xmlns:xlink="http://www.w3.org/1999/xlink"
     width="100%" viewBox="282 163 429 478" xml:space="preserve">

<path fill="#00FD88" opacity="1.000000" stroke="none"
    d="
M505.166443,171.214996
    C508.749664,173.079910 511.916901,174.954788 515.376953,176.974930
    C516.849182,178.962708 518.028625,180.805206 519.491272,183.243042
    C520.206421,185.225296 520.638367,186.612244 521.022278,188.414307
    C521.027161,190.219543 521.080078,191.609665 521.017822,193.354034
    C520.614624,195.138992 520.326599,196.569733 519.819336,198.260254
    C518.301392,200.631271 517.002808,202.742523 515.407715,204.999985
    C511.405090,207.120316 507.699005,209.094437 503.567169,211.019287
    C501.430023,211.002823 499.718567,211.035660 497.633026,210.963989
    C492.041901,210.428101 488.612030,207.022064 484.971771,203.360168
    C483.467621,200.742111 482.179138,198.371109 481.006104,195.561188
    C481.194092,192.120773 481.266724,189.119247 481.539307,185.840820
    C482.973663,183.090576 484.208099,180.617233 485.442505,178.143906
    C488.905426,175.980057 492.368286,173.816177 496.123566,171.428925
    C499.194153,171.212021 501.972321,171.218491 505.166443,171.214996
z"/>

<path fill="#A489F7" opacity="1.000000" stroke="none"
    d="
M497.825500,215.993835
    C497.880493,214.626007 497.935486,213.258194 497.998810,211.479431
    C499.718567,211.035660 501.430023,211.002823 503.576630,211.386383
    C504.066071,212.533661 504.120361,213.264587 504.112701,214.446381
    C504.092133,217.930328 504.133484,220.963379 504.112976,224.460602
    C504.092621,230.279861 504.134155,235.634979 504.112640,241.455719
    C504.049622,254.150848 504.049622,266.380341 504.049622,278.962708
    C510.478394,278.962708 516.113159,278.968445 521.747864,278.961792
    C559.167603,278.917511 596.587341,278.870605 634.465576,278.880859
    C645.909424,279.051575 656.819580,279.798004 666.892334,284.721436
    C689.073120,295.563049 700.620850,313.712036 703.024841,338.464294
    C703.045654,353.951324 703.109985,368.971283 703.111084,384.456604
    C703.037476,446.144501 702.994812,507.367065 703.048523,568.589539
    C703.057434,578.732361 701.420593,588.484558 696.959656,597.604919
    C687.710693,616.514404 672.309875,627.538147 651.592407,632.113159
    C646.716064,632.401306 642.263489,632.904724 637.804749,632.966248
    C625.541016,633.135437 613.274719,633.119324 600.543579,633.116821
    C541.701172,633.042053 483.324646,633.022095 424.948120,633.019348
    C418.963470,633.019043 412.978790,633.121033 406.528320,633.123535
    C390.039642,633.070007 374.016815,633.068420 357.569489,633.001465
    C322.857605,629.807190 299.058319,603.809326 299.002228,569.249878
    C298.936310,528.638550 298.998840,488.027130 298.975708,447.415771
    C298.966339,430.941162 298.878052,414.466614 298.880005,397.526733
    C298.897705,384.039551 298.861084,371.017639 298.881104,357.530334
    C299.631226,346.043488 300.324707,335.022034 301.234009,323.704681
    C302.596008,320.491425 303.566437,317.489838 304.917084,314.670410
    C313.364410,297.037018 327.480133,286.208679 346.389160,280.740997
    C348.246735,280.468506 349.701324,279.979675 351.170715,279.930023
    C363.443329,279.515381 375.718628,279.181580 388.458496,278.886597
    C425.106750,278.949860 461.289612,278.949860 497.824005,278.949860
    C497.824005,268.860535 497.824005,259.424713 497.880005,249.524231
    C497.899048,242.704117 497.862091,236.348694 497.883423,229.532227
    C497.902985,224.712067 497.864258,220.352951 497.825500,215.993835
M688.515137,308.050293
    C676.435608,290.946381 659.638062,283.062164 638.992737,283.032471
    C590.436951,282.962585 541.881042,283.010010 493.325165,283.010040
    C449.664917,283.010071 406.004517,282.937103 362.344482,283.033966
    C328.766113,283.108459 303.163300,308.115326 303.075134,341.463684
    C302.873413,417.785248 302.892242,494.108032 303.066193,570.429749
    C303.141785,603.600464 328.514832,628.888550 361.737885,628.939697
    C454.557343,629.082581 547.377319,629.074646 640.196838,628.943909
    C673.406311,628.897156 698.843323,603.653625 698.927429,570.494995
    C699.120911,494.173401 699.000305,417.850922 698.976990,341.528809
    C698.973328,329.570038 695.590210,318.600067 688.515137,308.050293
z"/>

<path fill="#3D2B7A" opacity="1.000000" stroke="none"
    d="
M688.708496,308.358673
    C695.590210,318.600067 698.973328,329.570038 698.976990,341.528809
    C699.000305,417.850922 699.120911,494.173401 698.927429,570.494995
    C698.843323,603.653625 673.406311,628.897156 640.196838,628.943909
    C547.377319,629.074646 454.557343,629.082581 361.737885,628.939697
    C328.514832,628.888550 303.141785,603.600464 303.066193,570.429749
    C302.892242,494.108032 302.873413,417.785248 303.075134,341.463684
    C303.163300,308.115326 328.766113,283.108459 362.344482,283.033966
    C406.004517,282.937103 449.664917,283.010071 493.325165,283.010040
    C541.881042,283.010010 590.436951,282.962585 638.992737,283.032471
    C659.638062,283.062164 676.435608,290.946381 688.708496,308.358673
M556.028259,423.331909
    C556.341064,425.636322 556.532776,427.964844 556.985413,430.241455
    C561.726562,454.085175 585.231323,469.728241 609.397461,465.161438
    C633.535217,460.600006 649.701843,437.324280 645.317749,413.445557
    C641.003296,389.946198 620.130859,373.910583 596.750000,376.132599
    C573.173950,378.373230 556.103149,397.755951 556.028259,423.331909
M439.232086,444.712067
    C439.741943,443.854095 440.290314,443.016510 440.755920,442.135162
    C449.622528,425.351013 447.168640,405.298584 434.500671,390.936066
    C422.308105,377.112549 402.248077,372.313965 384.741669,379.033081
    C367.357300,385.705383 355.904999,402.567993 355.997803,421.356110
    C356.094360,440.904877 369.035370,458.274719 387.774139,464.007294
    C407.153259,469.935760 426.815002,462.750214 439.232086,444.712067
M423.941437,539.714294
    C422.020294,538.748657 420.082184,537.815186 418.181335,536.811096
    C413.195862,534.177734 408.306610,531.339600 403.191925,528.990479
    C401.990814,528.438843 400.049805,529.498169 398.449188,529.816345
    C399.068848,531.192688 399.483673,532.725647 400.376434,533.893127
    C401.027008,534.744019 402.309296,535.110718 403.307709,535.696960
    C418.846649,544.821045 435.235870,552.065063 452.548401,557.003723
    C478.172668,564.313477 504.188019,566.083313 530.528442,561.388367
    C555.510620,556.935547 578.569275,547.395020 600.408936,534.742798
    C601.866272,533.898499 603.636292,531.184692 603.244873,530.015381
    C602.123535,526.666260 599.515442,528.468201 597.504028,529.479736
    C589.645447,533.432129 581.940613,537.709839 573.966003,541.408142
    C553.131226,551.070251 531.184875,556.639404 508.243195,557.714966
    C478.883728,559.091431 451.175171,552.210999 423.941437,539.714294
z"/>

<path fill="#00FD88" opacity="1.000000" stroke="none"
    d="
M556.015320,422.865356
    C556.103149,397.755951 573.173950,378.373230 596.750000,376.132599
    C620.130859,373.910583 641.003296,389.946198 645.317749,413.445557
    C649.701843,437.324280 633.535217,460.600006 609.397461,465.161438
    C585.231323,469.728241 561.726562,454.085175 556.985413,430.241455
    C556.532776,427.964844 556.341064,425.636322 556.015320,422.865356
M607.388184,402.056000
    C591.822388,397.953583 577.896729,410.499115 581.498230,425.380127
    C584.176392,436.446289 595.131714,443.191833 605.835388,440.365356
    C617.640076,437.248138 623.320312,426.332520 619.905762,413.066864
    C621.637207,409.596344 621.367615,406.359100 618.629883,403.520721
    C615.507324,400.283325 611.922913,400.556244 607.388184,402.056000
z"/>
<path fill="#00FD88" opacity="1.000000" stroke="none"
    d="
M439.047058,445.024414
    C426.815002,462.750214 407.153259,469.935760 387.774139,464.007294
    C369.035370,458.274719 356.094360,440.904877 355.997803,421.356110
    C355.904999,402.567993 367.357300,385.705383 384.741669,379.033081
    C402.248077,372.313965 422.308105,377.112549 434.500671,390.936066
    C447.168640,405.298584 449.622528,425.351013 440.755920,442.135162
    C440.290314,443.016510 439.741943,443.854095 439.047058,445.024414
M419.920135,413.077393
    C421.646393,409.601837 421.362152,406.361511 418.631409,403.523834
    C415.511444,400.281586 411.924255,400.555634 407.388245,402.056030
    C391.822449,397.953522 377.896851,410.498962 381.498260,425.380066
    C384.176392,436.446198 395.131683,443.191803 405.835297,440.365356
    C417.640045,437.248199 423.320160,426.332977 419.920135,413.077393
z"/>
<path fill="#03F186" opacity="1.000000" stroke="none"
    d="
M424.290833,539.863708
    C451.175171,552.210999 478.883728,559.091431 508.243195,557.714966
    C531.184875,556.639404 553.131226,551.070251 573.966003,541.408142
    C581.940613,537.709839 589.645447,533.432129 597.504028,529.479736
    C599.515442,528.468201 602.123535,526.666260 603.244873,530.015381
    C603.636292,531.184692 601.866272,533.898499 600.408936,534.742798
    C578.569275,547.395020 555.510620,556.935547 530.528442,561.388367
    C504.188019,566.083313 478.172668,564.313477 452.548401,557.003723
    C435.235870,552.065063 418.846649,544.821045 403.307709,535.696960
    C402.309296,535.110718 401.027008,534.744019 400.376434,533.893127
    C399.483673,532.725647 399.068848,531.192688 398.449188,529.816345
    C400.049805,529.498169 401.990814,528.438843 403.191925,528.990479
    C408.306610,531.339600 413.195862,534.177734 418.181335,536.811096
    C420.082184,537.815186 422.020294,538.748657 424.290833,539.863708
z"/>

<path fill="#2D1B69" opacity="1.000000" stroke="none"
    d="
M619.658813,413.801147
    C623.320312,426.332520 617.640076,437.248138 605.835388,440.365356
    C595.131714,443.191833 584.176392,436.446289 581.498230,425.380127
    C577.896729,410.499115 591.822388,397.953583 607.597412,402.482605
    C604.202820,407.678070 604.099854,411.362152 607.478088,414.662170
    C610.910278,418.014893 614.630249,417.751923 619.658813,413.801147
z"/>
<path fill="#C9C8D2" opacity="1.000000" stroke="none"
    d="
M619.782288,413.434021
    C614.630249,417.751923 610.910278,418.014893 607.478088,414.662170
    C604.099854,411.362152 604.202820,407.678070 608.002686,402.625214
    C611.922913,400.556244 615.507324,400.283325 618.629883,403.520721
    C621.367615,406.359100 621.637207,409.596344 619.782288,413.434021
z"/>
<path fill="#2D1B69" opacity="1.000000" stroke="none"
    d="
M419.658905,413.801208
    C423.320160,426.332977 417.640045,437.248199 405.835297,440.365356
    C395.131683,443.191803 384.176392,436.446198 381.498260,425.380066
    C377.896851,410.498962 391.822449,397.953522 407.597412,402.482635
    C404.202637,407.678436 404.099915,411.363007 407.478821,414.662872
    C410.911438,418.015259 414.656006,417.750336 419.658905,413.801208
z"/>
<path fill="#C9C8D2" opacity="1.000000" stroke="none"
    d="
M419.789520,413.439301
    C414.656006,417.750336 410.911438,418.015259 407.478821,414.662872
    C404.099915,411.363007 404.202637,407.678436 408.002716,402.625244
    C411.924255,400.555634 415.511444,400.281586 418.631409,403.523834
    C421.362152,406.361511 421.646393,409.601837 419.789520,413.439301
z"/>
</svg>
