<svg xmlns="http://www.w3.org/2000/svg" viewBox="36 3 440 440">
  <defs>
    <linearGradient id="bodyGrad" x1="0" y1="0" x2="0" y2="1">
      <stop offset="0%" stop-color="#818CF8"/>
      <stop offset="100%" stop-color="#6366F1"/>
    </linearGradient>
    <linearGradient id="faceGrad" x1="0" y1="0" x2="0" y2="1">
      <stop offset="0%" stop-color="#EEF2FF"/>
      <stop offset="100%" stop-color="#E0E7FF"/>
    </linearGradient>
    <linearGradient id="antennaGlow" x1="0" y1="0" x2="0" y2="1">
      <stop offset="0%" stop-color="#FCD34D"/>
      <stop offset="100%" stop-color="#F59E0B"/>
    </linearGradient>
  </defs>
  <rect x="248" y="52" width="16" height="50" rx="8" fill="#A5B4FC"/>
  <circle cx="256" cy="44" r="18" fill="url(#antennaGlow)"/>
  <circle cx="256" cy="44" r="10" fill="#FEF3C7" opacity="0.8"/>
  <rect x="96" y="100" width="320" height="280" rx="80" fill="url(#bodyGrad)"/>
  <rect x="136" y="140" width="240" height="200" rx="60" fill="url(#faceGrad)"/>
  <ellipse cx="200" cy="220" rx="32" ry="36" fill="#4F46E5"/>
  <ellipse cx="208" cy="212" rx="12" ry="14" fill="white" opacity="0.9"/>
  <ellipse cx="196" cy="228" rx="6" ry="6" fill="white" opacity="0.4"/>
  <ellipse cx="312" cy="220" rx="32" ry="36" fill="#4F46E5"/>
  <ellipse cx="320" cy="212" rx="12" ry="14" fill="white" opacity="0.9"/>
  <ellipse cx="308" cy="228" rx="6" ry="6" fill="white" opacity="0.4"/>
  <path d="M192 280 Q256 340 320 280" stroke="#4F46E5" stroke-width="10" fill="none" stroke-linecap="round"/>
  <ellipse cx="168" cy="268" rx="22" ry="14" fill="#F9A8D4" opacity="0.5"/>
  <ellipse cx="344" cy="268" rx="22" ry="14" fill="#F9A8D4" opacity="0.5"/>
  <rect x="56" y="190" width="44" height="80" rx="22" fill="url(#bodyGrad)"/>
  <rect x="66" y="206" width="24" height="48" rx="12" fill="#A5B4FC"/>
  <rect x="412" y="190" width="44" height="80" rx="22" fill="url(#bodyGrad)"/>
  <rect x="422" y="206" width="24" height="48" rx="12" fill="#A5B4FC"/>
</svg>
